<svg width="124" height="166" viewBox="0 0 124 166" fill="none" xmlns="http://www.w3.org/2000/svg">
<path d="M99.5689 0.931641C87.7598 0.931641 78.0752 10.4096 78.0752 22.0876C78.0752 33.7656 87.7598 43.227 99.5689 43.227C111.378 43.227 121.057 33.7656 121.057 22.0876C121.057 10.4096 111.378 0.931641 99.5689 0.931641ZM99.1536 6.60683C99.2903 6.60346 99.4314 6.60683 99.5689 6.60683C108.369 6.60683 115.387 13.5304 115.387 22.0876C115.387 30.6448 108.369 37.5739 99.5689 37.5739C90.7683 37.5739 83.7449 30.6448 83.7449 22.0876C83.7449 13.6641 90.5466 6.81867 99.1536 6.60683ZM3.28464 42.6622C2.53462 42.674 1.81986 42.9826 1.29693 43.5204C0.77174 44.0545 0.479277 44.7747 0.483433 45.5238C0.487588 46.2728 0.788024 46.9897 1.3191 47.518L15.2828 61.227L1.3191 74.9305C1.05364 75.1923 0.84245 75.504 0.697629 75.8476C0.552808 76.1912 0.477201 76.5601 0.475141 76.9329C0.473081 77.3058 0.544607 77.6754 0.685623 78.0206C0.826638 78.3658 1.03437 78.6798 1.29693 78.9446C1.82226 79.4786 2.53761 79.783 3.28667 79.7912C4.03573 79.7995 4.75759 79.5109 5.29453 78.9885L19.3357 65.202L33.3769 78.9885C33.9138 79.5109 34.6357 79.7995 35.3848 79.7912C36.1338 79.783 36.8492 79.4786 37.3745 78.9446C37.6371 78.6798 37.8448 78.3658 37.9858 78.0206C38.1268 77.6754 38.1983 77.3058 38.1963 76.9329C38.1942 76.5601 38.1186 76.1912 37.9738 75.8476C37.829 75.504 37.6178 75.1923 37.3523 74.9305L23.3886 61.227L37.3523 47.518C37.8834 46.9897 38.1838 46.2728 38.188 45.5238C38.1922 44.7747 37.8997 44.0545 37.3745 43.5204C36.8492 42.9864 36.1338 42.682 35.3848 42.6738C34.6357 42.6656 33.9138 42.9541 33.3769 43.4765L19.3357 57.252L5.29453 43.4765C4.7589 42.9496 4.03599 42.6564 3.28464 42.6622ZM99.5689 48.2267C99.4129 48.2285 99.2573 48.2432 99.1038 48.2706C99.0143 48.2867 98.9256 48.307 98.8381 48.3316C98.7728 48.3479 98.7082 48.3665 98.6442 48.3874C98.5559 48.4163 98.4691 48.4495 98.384 48.487C98.3181 48.5195 98.2535 48.5545 98.1903 48.592C98.0438 48.6736 97.9048 48.7681 97.775 48.8743C97.7238 48.9132 97.674 48.9539 97.6255 48.9961C97.5554 49.0646 97.4888 49.1367 97.4261 49.212C97.3999 49.2394 97.3741 49.2672 97.349 49.2956L82.4274 68.0209C81.9589 68.6078 81.7424 69.3566 81.8254 70.103C81.9085 70.8494 82.2843 71.5323 82.8704 72.0019C83.1628 72.2352 83.4985 72.4083 83.8582 72.5113C84.2179 72.6142 84.5944 72.645 84.966 72.6017C85.3376 72.5585 85.6969 72.4421 86.0234 72.2593C86.3498 72.0766 86.6368 71.831 86.8678 71.5368L96.7233 59.1621V74.6595C96.7233 83.6706 89.4087 90.8933 80.1462 90.8933H72.1733H56.2496C43.9996 90.8933 33.9863 100.675 33.9863 112.786V123.228C23.507 124.605 15.3385 133.471 15.3385 144.196C15.3385 155.874 25.0232 165.352 36.8321 165.352C48.6412 165.352 58.3204 155.874 58.3204 144.196C58.3204 133.464 50.1455 124.59 39.6559 123.222V112.786C39.6559 103.774 46.9871 96.5684 56.2496 96.5684H72.1733H80.1462C92.3963 96.5684 102.393 86.7699 102.393 74.6595V59.1344L112.271 71.5368C112.737 72.1246 113.417 72.5036 114.162 72.5908C114.907 72.6779 115.657 72.4662 116.246 72.0019C116.835 71.5347 117.214 70.853 117.3 70.1065C117.386 69.36 117.172 68.6099 116.706 68.0209L101.784 49.2956C101.495 48.9364 101.122 48.6533 100.699 48.4706C100.655 48.4527 100.611 48.4359 100.566 48.4203C100.448 48.3754 100.328 48.3384 100.206 48.3095C100.158 48.2971 100.11 48.2861 100.062 48.2763C99.8995 48.2451 99.7343 48.229 99.5689 48.2267ZM88.667 110.128C87.917 110.139 87.2022 110.448 86.6793 110.986C86.1563 111.522 85.8667 112.244 85.874 112.993C85.8812 113.742 86.1846 114.457 86.7178 114.983L100.682 128.698L86.7178 142.418C86.1838 142.943 85.8795 143.659 85.8713 144.408C85.863 145.157 86.1516 145.879 86.6739 146.416C86.9348 146.683 87.246 146.896 87.5895 147.043C87.933 147.19 88.3022 147.267 88.6757 147.271C89.0493 147.274 89.4199 147.204 89.7662 147.064C90.1124 146.924 90.4276 146.716 90.6936 146.454L104.729 132.673L118.759 146.454C119.025 146.716 119.34 146.922 119.686 147.062C120.032 147.201 120.402 147.271 120.775 147.268C121.147 147.264 121.516 147.187 121.859 147.041C122.202 146.895 122.513 146.682 122.774 146.416C123.297 145.879 123.586 145.158 123.579 144.409C123.572 143.66 123.268 142.944 122.735 142.418L108.771 128.698L122.735 114.983C123.268 114.457 123.572 113.742 123.579 112.993C123.586 112.244 123.297 111.522 122.774 110.986C122.512 110.717 122.2 110.503 121.855 110.355C121.51 110.208 121.139 110.131 120.764 110.128C120.014 110.123 119.294 110.416 118.759 110.941L104.729 124.728L90.6936 110.941C90.4264 110.679 90.1097 110.471 89.7619 110.332C89.414 110.192 89.0418 110.123 88.667 110.128ZM36.8318 128.709C45.6324 128.709 52.6504 135.638 52.6504 144.195C52.6504 152.753 45.6324 159.682 36.8318 159.682C28.0313 159.682 21.0078 152.753 21.0078 144.195C21.0078 135.638 28.0313 128.709 36.8318 128.709Z" fill="#FAFAFA"/>
</svg>
